<svg xmlns="http://www.w3.org/2000/svg" viewBox="0 0 800 800" width="800" height="800" role="img">
  <defs>
    <linearGradient id="bg" x1="0" y1="0" x2="0" y2="1">
      <stop offset="0" stop-color="#ffffff"/><stop offset="1" stop-color="#eef1f5"/>
    </linearGradient>
    <linearGradient id="metal" x1="0" y1="0" x2="1" y2="1">
      <stop offset="0" stop-color="#eebc63"/><stop offset="0.5" stop-color="#d99a2b"/><stop offset="1" stop-color="#a4711c"/>
    </linearGradient>
    <linearGradient id="metalV" x1="0" y1="0" x2="0" y2="1">
      <stop offset="0" stop-color="#eebc63"/><stop offset="0.55" stop-color="#d99a2b"/><stop offset="1" stop-color="#a4711c"/>
    </linearGradient>
    <radialGradient id="glow" cx="0.5" cy="0.42" r="0.55">
      <stop offset="0" stop-color="#ffffff" stop-opacity="0.55"/><stop offset="1" stop-color="#ffffff" stop-opacity="0"/>
    </radialGradient>
    <filter id="soft" x="-20%" y="-20%" width="140%" height="140%">
      <feDropShadow dx="0" dy="14" stdDeviation="16" flood-color="#0f172a" flood-opacity="0.18"/>
    </filter>
  </defs>
  <rect width="800" height="800" fill="url(#bg)"/>
  <ellipse cx="400" cy="690" rx="230" ry="34" fill="#0f172a" opacity="0.10"/>
  <g filter="url(#soft)">
    <rect x="130" y="250" width="540" height="300" rx="26" fill="#a4711c"/>
    <rect x="152" y="272" width="496" height="256" rx="16" fill="#f5f7fa"/>
    <path d="M 168 280 L 179 400 L 168 520" fill="none" stroke="#d99a2b" stroke-width="9" stroke-linejoin="round"/><path d="M 190 280 L 201 400 L 190 520" fill="none" stroke="#d99a2b" stroke-width="9" stroke-linejoin="round"/><path d="M 212 280 L 223 400 L 212 520" fill="none" stroke="#d99a2b" stroke-width="9" stroke-linejoin="round"/><path d="M 234 280 L 245 400 L 234 520" fill="none" stroke="#d99a2b" stroke-width="9" stroke-linejoin="round"/><path d="M 256 280 L 267 400 L 256 520" fill="none" stroke="#d99a2b" stroke-width="9" stroke-linejoin="round"/><path d="M 278 280 L 289 400 L 278 520" fill="none" stroke="#d99a2b" stroke-width="9" stroke-linejoin="round"/><path d="M 300 280 L 311 400 L 300 520" fill="none" stroke="#d99a2b" stroke-width="9" stroke-linejoin="round"/><path d="M 322 280 L 333 400 L 322 520" fill="none" stroke="#d99a2b" stroke-width="9" stroke-linejoin="round"/><path d="M 344 280 L 355 400 L 344 520" fill="none" stroke="#d99a2b" stroke-width="9" stroke-linejoin="round"/><path d="M 366 280 L 377 400 L 366 520" fill="none" stroke="#d99a2b" stroke-width="9" stroke-linejoin="round"/><path d="M 388 280 L 399 400 L 388 520" fill="none" stroke="#d99a2b" stroke-width="9" stroke-linejoin="round"/><path d="M 410 280 L 421 400 L 410 520" fill="none" stroke="#d99a2b" stroke-width="9" stroke-linejoin="round"/><path d="M 432 280 L 443 400 L 432 520" fill="none" stroke="#d99a2b" stroke-width="9" stroke-linejoin="round"/><path d="M 454 280 L 465 400 L 454 520" fill="none" stroke="#d99a2b" stroke-width="9" stroke-linejoin="round"/><path d="M 476 280 L 487 400 L 476 520" fill="none" stroke="#d99a2b" stroke-width="9" stroke-linejoin="round"/><path d="M 498 280 L 509 400 L 498 520" fill="none" stroke="#d99a2b" stroke-width="9" stroke-linejoin="round"/><path d="M 520 280 L 531 400 L 520 520" fill="none" stroke="#d99a2b" stroke-width="9" stroke-linejoin="round"/><path d="M 542 280 L 553 400 L 542 520" fill="none" stroke="#d99a2b" stroke-width="9" stroke-linejoin="round"/><path d="M 564 280 L 575 400 L 564 520" fill="none" stroke="#d99a2b" stroke-width="9" stroke-linejoin="round"/><path d="M 586 280 L 597 400 L 586 520" fill="none" stroke="#d99a2b" stroke-width="9" stroke-linejoin="round"/><path d="M 608 280 L 619 400 L 608 520" fill="none" stroke="#d99a2b" stroke-width="9" stroke-linejoin="round"/><path d="M 630 280 L 641 400 L 630 520" fill="none" stroke="#d99a2b" stroke-width="9" stroke-linejoin="round"/>
    <rect x="130" y="250" width="540" height="300" rx="26" fill="none" stroke="#a4711c" stroke-width="8"/>
    <rect x="130" y="250" width="540" height="34" rx="17" fill="#ffffff" opacity="0.18"/></g>
  <rect width="800" height="800" fill="url(#glow)"/>
</svg>