<svg xmlns="http://www.w3.org/2000/svg" viewBox="0 0 800 800" width="800" height="800" role="img">
  <defs>
    <linearGradient id="bg" x1="0" y1="0" x2="0" y2="1">
      <stop offset="0" stop-color="#ffffff"/><stop offset="1" stop-color="#eef1f5"/>
    </linearGradient>
    <linearGradient id="metal" x1="0" y1="0" x2="1" y2="1">
      <stop offset="0" stop-color="#c3ccd6"/><stop offset="0.5" stop-color="#8e99a6"/><stop offset="1" stop-color="#5a646f"/>
    </linearGradient>
    <linearGradient id="metalV" x1="0" y1="0" x2="0" y2="1">
      <stop offset="0" stop-color="#c3ccd6"/><stop offset="0.55" stop-color="#8e99a6"/><stop offset="1" stop-color="#5a646f"/>
    </linearGradient>
    <radialGradient id="glow" cx="0.5" cy="0.42" r="0.55">
      <stop offset="0" stop-color="#ffffff" stop-opacity="0.55"/><stop offset="1" stop-color="#ffffff" stop-opacity="0"/>
    </radialGradient>
    <filter id="soft" x="-20%" y="-20%" width="140%" height="140%">
      <feDropShadow dx="0" dy="14" stdDeviation="16" flood-color="#0f172a" flood-opacity="0.18"/>
    </filter>
  </defs>
  <rect width="800" height="800" fill="url(#bg)"/>
  <ellipse cx="400" cy="690" rx="230" ry="34" fill="#0f172a" opacity="0.10"/>
  <g filter="url(#soft)">
    <path d="M 140 470 Q 150 250 400 214 Q 650 250 660 470 L 640 566 Q 400 604 160 566 Z"
      fill="url(#metalV)" stroke="#5a646f" stroke-width="7"/>
    <path d="M 190 460 Q 200 300 400 272 Q 600 300 610 460" fill="none" stroke="#5a646f" stroke-width="4" opacity="0.4"/>
    <rect x="300" y="486" width="200" height="52" rx="12" fill="#e6ebf1" stroke="#5a646f" stroke-width="5"/>
    <circle cx="220" cy="516" r="18" fill="#5a646f" opacity="0.4"/>
    <circle cx="580" cy="516" r="18" fill="#5a646f" opacity="0.4"/>
    <path d="M 240 300 Q 400 268 560 300" fill="none" stroke="#ffffff" stroke-width="10" opacity="0.30"/></g>
  <rect width="800" height="800" fill="url(#glow)"/>
</svg>